<svg xmlns="http://www.w3.org/2000/svg" xmlns:xlink="http://www.w3.org/1999/xlink" version="1.1" x="0px" y="0px" viewBox="0 0 64 80" enable-background="new 0 0 64 64" xml:space="preserve"><g><path fill="#000000" d="M61.7,42h-9.2v-9.2c0-0.8-0.6-1.4-1.4-1.4c-0.8,0-1.4,0.6-1.4,1.4V42h-9.2c-0.8,0-1.4,0.6-1.4,1.4   c0,0.8,0.6,1.4,1.4,1.4h9.2v9.2c0,0.8,0.6,1.4,1.4,1.4c0.8,0,1.4-0.6,1.4-1.4v-9.2h9.2c0.8,0,1.4-0.6,1.4-1.4   C63.1,42.6,62.5,42,61.7,42z"/><path fill="#000000" d="M47.2,54.6c-2.5,1.5-5.7,2.3-8.4,2.9c-4.1,1-8.4,1.5-12.7,1.5c-7,0-13.6-1.3-19.1-3.8   c-0.8-0.4-1.6-0.9-2.4-1.3c-0.1-0.1-0.2-0.1-0.3-0.2l-0.7-0.4l0-0.4c0-0.3,0-0.5,0-0.7l0-0.5c0-1.4-0.1-2.9,0.4-4   c1.7-3.8,7.5-5.9,10.8-6.8c5.5-1.5,7.8-4.5,7-9c-0.2-1.3-1.1-2.3-1.8-3.1c-0.2-0.3-0.4-0.4-0.5-0.6c-1.1-1.4-1.9-3-2.4-4.5   c0-0.1-0.1-0.3-0.1-0.5l-0.3-1.3l-1,0c-0.3,0-0.9,0-1.1-0.5c-0.5-0.9-0.8-2-0.8-3.2l0-0.6l2.2-0.4l-0.3-1.9c0-0.3-0.1-0.5-0.1-0.8   c-0.3-2.1,0.1-3.8,1.1-5.1c2-2.7,5.7-4.3,9.9-4.3c4.2,0,7.9,1.6,9.9,4.3c1,1.4,1.4,3,1.1,5.1l-0.4,2.7l2.2,0.4l0,0.6   c0,1.2-0.3,2.2-0.8,3.2c-0.3,0.5-0.8,0.5-1.1,0.5l-1,0l-0.3,1.4c0,0.2-0.1,0.4-0.1,0.5c-0.5,1.6-1.3,3.1-2.4,4.5   c-0.2,0.2-0.4,0.4-0.5,0.6c-0.8,0.9-1.6,1.8-1.8,3.1c-0.8,4.4,1.4,7.3,6.6,8.9c0.7-0.8,1.7-1.2,2.8-1.2h2c-1.2-0.5-2.4-0.8-3.7-1.2   c-3.1-0.9-5.8-2.2-5.1-6c0.1-0.6,0.6-1.2,1.2-1.8c0.2-0.3,0.4-0.5,0.6-0.7c1.3-1.6,2.3-3.4,2.8-5.2l0.1-0.3l0.3-0.1   c0.9-0.3,1.6-0.8,2-1.7c0.7-1.4,1.1-3,1.1-4.7c0-0.8-0.2-2-1.4-2.6L40,15l0-0.5c0.3-2.7-0.2-5-1.6-6.8c-2.5-3.4-7-5.4-12-5.4   s-9.5,2-12,5.4c-1.4,1.8-1.9,4.1-1.6,6.8l0,0.5l-0.4,0.2c-1.2,0.6-1.4,1.8-1.4,2.6c0,1.7,0.4,3.3,1.1,4.7c0.5,0.8,1.1,1.4,2,1.7   l0.3,0.1l0.1,0.3c0.6,1.8,1.6,3.6,2.8,5.2c0.2,0.2,0.4,0.5,0.6,0.7c0.5,0.6,1.1,1.2,1.2,1.8c0.7,3.8-2.1,5.2-5.1,6   c-4.6,1.3-10.5,3.7-12.5,8.3c-0.7,1.6-0.7,3.5-0.6,5.2l0,0.5c0,0.2,0,0.5,0,0.8c0,1.7,1.3,2.4,2,2.8l0.2,0.1   c0.8,0.5,1.8,1.1,2.8,1.5c5.9,2.7,12.9,4.1,20.2,4.1c4.6,0,9.1-0.5,13.4-1.6c2.8-0.7,6.2-1.5,9-3.2C47.8,56.3,47.3,55.5,47.2,54.6z   "/></g><text x="0" y="79" fill="#000000" font-size="5px" font-weight="bold" font-family="'Helvetica Neue', Helvetica, Arial-Unicode, Arial, Sans-serif">Created by Delwar Hossain</text><text x="0" y="84" fill="#000000" font-size="5px" font-weight="bold" font-family="'Helvetica Neue', Helvetica, Arial-Unicode, Arial, Sans-serif">from the Noun Project</text></svg>