<svg xmlns="http://www.w3.org/2000/svg" data-name="Layer 1" viewBox="0 0 100 125" x="0px" y="0px"><title>Artboard 3</title><path d="M36.2,84.65a19.55,19.55,0,0,0,13.87-5.74l28.3-28.3A19.61,19.61,0,1,0,50.64,22.87L36.49,37h0L22.34,51.17A19.6,19.6,0,0,0,36.2,84.65Zm-6.45-4.3V48l3.08-3.08V81.3A16.57,16.57,0,0,1,29.76,80.34Zm6.08,1.29V41.92l1.71-1.71,1.37,1.37V81.41A16.73,16.73,0,0,1,35.84,81.63ZM45,47.75V79.12a16.46,16.46,0,0,1-3.08,1.5v-36L45,47.66S45,47.72,45,47.75Zm3,29V50.66l3.08,3.08V73.54s0,.07,0,.11Zm13-13-.88.88V62.82Zm-3.88,3.88-3.09,3.09V56.74l3.08,3.08V67.5S57.16,67.55,57.16,67.58ZM52.76,25A16.61,16.61,0,1,1,76.25,48.49L63.16,61.58,39.67,38.08Zm-26,26v27.7a16.59,16.59,0,0,1-2.3-1.9c-.32-.32-.6-.65-.89-1a1.49,1.49,0,0,0,.11-.56V54.5a1.51,1.51,0,0,0,0-.31c.26-.3.52-.61.81-.9Zm-6.08,8.18V70.91A16.69,16.69,0,0,1,20.68,59.18Z"/><text x="0" y="115" fill="#000000" font-size="5px" font-weight="bold" font-family="'Helvetica Neue', Helvetica, Arial-Unicode, Arial, Sans-serif">Created by Bernar  Novalyi</text><text x="0" y="120" fill="#000000" font-size="5px" font-weight="bold" font-family="'Helvetica Neue', Helvetica, Arial-Unicode, Arial, Sans-serif">from the Noun Project</text></svg>