<svg xmlns="http://www.w3.org/2000/svg" xmlns:xlink="http://www.w3.org/1999/xlink" version="1.1" x="0px" y="0px" viewBox="0 0 100 125" enable-background="new 0 0 100 100" xml:space="preserve"><path d="M70.277,57.76c-5.36-6.909-5.463-14.791-2.663-21.751c-5.934,5.812-9.275,12.998-6.942,20.254  c0.296,0.923,0.486,1.827,0.625,2.75l0.053,1.113l-0.331,0.122l-1.409-3.22c-2.002-5.48-2.297-11.258-0.331-17.192  c3.915-11.623-1.2-23.004-10.527-32.156c4.298,11.066,3.898,23.648-4.802,34.785c-1.671,2.123-3.045,4.281-4.141,6.49l-0.662,1.461  l0.053-0.382c1.757-7.482-2.071-14.269-8.44-19.384c3.306,6.629,3.811,14.495-0.992,21.977c-4.02,7.725-5.047,17.314-1.897,24.431  c4.925,10.284,11.468,15.017,20.36,15.26c1.287,0.017,2.61-0.034,3.968-0.209c7.256-0.783,16.322-4.331,19.245-12.736  C74.332,72.167,75.707,64.788,70.277,57.76z"/><text x="0" y="115" fill="#000000" font-size="5px" font-weight="bold" font-family="'Helvetica Neue', Helvetica, Arial-Unicode, Arial, Sans-serif">Created by Jacqueline Fernandes</text><text x="0" y="120" fill="#000000" font-size="5px" font-weight="bold" font-family="'Helvetica Neue', Helvetica, Arial-Unicode, Arial, Sans-serif">from the Noun Project</text></svg>