<svg xmlns="http://www.w3.org/2000/svg" xmlns:xlink="http://www.w3.org/1999/xlink" version="1.1" x="0px" y="0px" viewBox="0 0 63 78.75" enable-background="new 0 0 63 63" xml:space="preserve"><g><path d="M57.1,44.4C55.5,37,49,35.8,49,35.8c-3.4-1.1-7.5-1.7-7.5-1.7l-10,12.8l-10-12.8c-4.3,0.6-8,1.8-8,1.8   c-4,1.2-6.9,4.4-7.6,8.6c-0.7,4-0.5,7.9,0.5,11.9L7,59c0,0,10.5,3.5,24.4,3.5c13.8,0,24.4-3.5,24.4-3.5l0.7-2.7   C57.6,52.4,57.9,48.4,57.1,44.4z M54.2,57.4c-14.8,4.2-30.8,4.2-45.6,0c0,0-1.8-6.9-0.8-12.6c0.5-3.3,2.9-6,6.2-6.9   c0,0,3.1-0.8,4.4-1.1c-1,2.5-1.4,5.2-1,7.9c-2.8,0.5-5,2.9-5,5.9v4h4v-2h-2v-2c0-2.2,1.8-4,4-4c2.2,0,4,1.8,4,4v2h-2v2h4v-4   c0-3-2.2-5.4-5-5.9c-0.4-2.8,0-5.7,1.3-8.2l10.7,13.8l10.8-13.9c1.6,0.3,5.2,1.1,5.4,1.3c-1.4,2.8-1.9,6.1-1.5,9.2   c-1.6,0.5-2.8,2-2.8,3.8c0,2.2,1.8,4,4,4c2.2,0,4-1.8,4-4c0-1.9-1.4-3.5-3.2-3.9c-0.5-2.9,0-5.9,1.4-8.5c4.2,1.9,5.1,5,5.4,6.7   C56.3,51,54.2,57.4,54.2,57.4z M49.4,50.5c0,1.1-0.9,2-2,2c-1.1,0-2-0.9-2-2c0-1.1,0.9-2,2-2C48.5,48.5,49.4,49.4,49.4,50.5z"/><path d="M17.6,22.5h1.1c1.2,6.4,6.1,15,12.7,15c6.6,0,11.5-8.6,12.7-15h1.1l1.6-7.5c1-4.8-1-9.8-5.1-12.5c-2-1.3-4.3-2-6.7-2h-7.3   c-2.4,0-4.7,0.7-6.7,2C17,5.3,15,10.2,16,15L17.6,22.5z M31.5,35.5c-5.2,0-9.5-7.2-10.7-13h21.3C40.9,28.3,36.6,35.5,31.5,35.5z    M22.2,4.2c1.6-1.1,3.6-1.7,5.6-1.7h7.3c2,0,3.9,0.6,5.6,1.7c3.4,2.3,5.1,6.4,4.2,10.4l-1.3,5.9H19.3L18,14.6   C17.1,10.6,18.8,6.5,22.2,4.2z"/><polygon points="30.4,16.5 32.4,16.5 32.4,12.5 36.4,12.5 36.4,10.5 32.4,10.5 32.4,6.5 30.4,6.5 30.4,10.5 26.4,10.5 26.4,12.5    30.4,12.5  "/></g><text x="0" y="78" fill="#000000" font-size="5px" font-weight="bold" font-family="'Helvetica Neue', Helvetica, Arial-Unicode, Arial, Sans-serif">Created by Icon Fair</text><text x="0" y="83" fill="#000000" font-size="5px" font-weight="bold" font-family="'Helvetica Neue', Helvetica, Arial-Unicode, Arial, Sans-serif">from the Noun Project</text></svg>