<svg xmlns:dc="http://purl.org/dc/elements/1.1/" xmlns:cc="http://creativecommons.org/ns#" xmlns:rdf="http://www.w3.org/1999/02/22-rdf-syntax-ns#" xmlns:svg="http://www.w3.org/2000/svg" xmlns="http://www.w3.org/2000/svg" xmlns:sodipodi="http://sodipodi.sourceforge.net/DTD/sodipodi-0.dtd" xmlns:inkscape="http://www.inkscape.org/namespaces/inkscape" version="1.1" x="0px" y="0px" viewBox="0 0 80 100"><g transform="translate(0,-972.36218)"><path style="text-indent:0;text-transform:none;direction:ltr;block-progression:tb;baseline-shift:baseline;color:#000000;enable-background:accumulate;" d="m 28,992.36218 c -0.5523,0 -1,0.4477 -1,1 l 0,8.09372 c -2.2728,0.4684 -4,2.5004 -4,4.9063 0,2.4058 1.7272,4.4379 4,4.9062 l 0,20.0938 c 0,0.5522 0.4477,1 1,1 0.5523,0 1,-0.4478 1,-1 l 0,-20.0938 c 2.2727,-0.4683 4,-2.5004 4,-4.9062 0,-2.4059 -1.7273,-4.4379 -4,-4.9063 l 0,-8.09372 c 0,-0.5523 -0.4477,-1 -1,-1 z m 12,0 c -0.5523,0 -1,0.4477 -1,1 l 0,24.09372 c -2.2728,0.4684 -4,2.5004 -4,4.9063 0,2.4058 1.7272,4.4379 4,4.9062 l 0,4.0938 c 0,0.5522 0.4477,1 1,1 0.5523,0 1,-0.4478 1,-1 l 0,-4.0938 c 2.2727,-0.4683 4,-2.5004 4,-4.9062 0,-2.4059 -1.7273,-4.4379 -4,-4.9063 l 0,-24.09372 c 0,-0.5523 -0.4477,-1 -1,-1 z m 12,0 c -0.5523,0 -1,0.4477 -1,1 l 0,4.0937 c -2.2728,0.4684 -4,2.5004 -4,4.90632 0,2.4058 1.7272,4.4379 4,4.9062 l 0,24.0938 c 0,0.5522 0.4477,1 1,1 0.5523,0 1,-0.4478 1,-1 l 0,-24.0938 c 2.2727,-0.4683 4,-2.5004 4,-4.9062 0,-2.40592 -1.7273,-4.43792 -4,-4.90632 l 0,-4.0937 c 0,-0.5523 -0.4477,-1 -1,-1 z m 0,7 c 1.6687,0 3,1.33132 3,3.00002 0,1.6687 -1.3313,3 -3,3 -1.6687,0 -3,-1.3313 -3,-3 0,-1.6687 1.3313,-3.00002 3,-3.00002 z m -24,4.00002 c 1.6687,0 3,1.3313 3,3 0,1.6687 -1.3313,3 -3,3 -1.6687,0 -3,-1.3313 -3,-3 0,-1.6687 1.3313,-3 3,-3 z m 12,16 c 1.6687,0 3,1.3313 3,3 0,1.6687 -1.3313,3 -3,3 -1.6687,0 -3,-1.3313 -3,-3 0,-1.6687 1.3313,-3 3,-3 z" fill="#000000" fill-opacity="1" stroke="none" marker="none" visibility="visible" display="inline" overflow="visible"/></g><text x="0" y="95" fill="#000000" font-size="5px" font-weight="bold" font-family="'Helvetica Neue', Helvetica, Arial-Unicode, Arial, Sans-serif">Created by Aybige</text><text x="0" y="100" fill="#000000" font-size="5px" font-weight="bold" font-family="'Helvetica Neue', Helvetica, Arial-Unicode, Arial, Sans-serif">from the Noun Project</text></svg>