<svg xmlns="http://www.w3.org/2000/svg" xmlns:xlink="http://www.w3.org/1999/xlink" version="1.1" x="0px" y="0px" viewBox="0 0 78.667 90.625" enable-background="new 0 0 78.667 72.5" xml:space="preserve"><rect x="9.833" y="26.667" fill="none" stroke="#000000" stroke-width="2" width="9.667" height="7.334"/><rect x="9.833" y="42.667" fill="none" stroke="#000000" stroke-width="2" width="9.667" height="7.334"/><rect x="25.833" y="42.667" fill="none" stroke="#000000" stroke-width="2" width="9.667" height="7.334"/><rect x="25.833" y="26.667" fill="none" stroke="#000000" stroke-width="2" width="9.667" height="7.334"/><rect x="41.833" y="26.667" fill="none" stroke="#000000" stroke-width="2" width="9.667" height="7.334"/><line fill="none" stroke="#000000" stroke-width="3" stroke-linecap="round" x1="1.5" y1="18.833" x2="65" y2="18.833"/><polyline fill="none" stroke="#000000" stroke-width="3" stroke-linejoin="round" points="44.534,58.167 1.5,58.167 1.5,7.167   65,7.167 65,38.555 "/><circle fill="none" stroke="#000000" stroke-width="3" cx="60.084" cy="53.917" r="17.083"/><line fill="none" stroke="#000000" stroke-width="4" stroke-linecap="round" x1="11.334" y1="11.167" x2="11.334" y2="2"/><line fill="none" stroke="#000000" stroke-width="4" stroke-linecap="round" x1="53.334" y1="11.167" x2="53.334" y2="2"/><line fill="none" stroke="#000000" stroke-width="4" stroke-linecap="round" x1="32.334" y1="11.167" x2="32.334" y2="2"/><line fill="none" stroke="#000000" stroke-width="5" x1="60.084" y1="44.083" x2="60.084" y2="63.75"/><line fill="none" stroke="#000000" stroke-width="5" x1="50.252" y1="53.917" x2="69.918" y2="53.917"/><text x="0" y="87.5" fill="#000000" font-size="5px" font-weight="bold" font-family="'Helvetica Neue', Helvetica, Arial-Unicode, Arial, Sans-serif">Created by Icons Stall</text><text x="0" y="92.5" fill="#000000" font-size="5px" font-weight="bold" font-family="'Helvetica Neue', Helvetica, Arial-Unicode, Arial, Sans-serif">from the Noun Project</text></svg>