<svg xmlns="http://www.w3.org/2000/svg" xmlns:xlink="http://www.w3.org/1999/xlink" version="1.1" x="0px" y="0px" viewBox="0 0 100 125" enable-background="new 0 0 100 100" xml:space="preserve"><path d="M92.5,10h-85C6.1,10,5,11.1,5,12.5v55C5,68.9,6.1,70,7.5,70H20v17.5c0,1.1,0.7,2,1.7,2.4c1,0.3,2.2,0,2.8-0.9l14.3-19h53.8  c1.4,0,2.5-1.1,2.5-2.5v-55C95,11.1,93.9,10,92.5,10z M90,65H37.5c-0.8,0-1.5,0.4-2,1L25,80V67.5c0-1.4-1.1-2.5-2.5-2.5H10V15h80V65  z"/><path d="M22.5,30h30c1.4,0,2.5-1.1,2.5-2.5S53.9,25,52.5,25h-30c-1.4,0-2.5,1.1-2.5,2.5S21.1,30,22.5,30z"/><path d="M77.5,37.5h-25c-1.4,0-2.5,1.1-2.5,2.5s1.1,2.5,2.5,2.5h25c1.4,0,2.5-1.1,2.5-2.5S78.9,37.5,77.5,37.5z"/><path d="M22.5,42.5h20c1.4,0,2.5-1.1,2.5-2.5s-1.1-2.5-2.5-2.5h-20c-1.4,0-2.5,1.1-2.5,2.5S21.1,42.5,22.5,42.5z"/><path d="M57.5,50h-15c-1.4,0-2.5,1.1-2.5,2.5s1.1,2.5,2.5,2.5h15c1.4,0,2.5-1.1,2.5-2.5S58.9,50,57.5,50z"/><path d="M22.5,55h10c1.4,0,2.5-1.1,2.5-2.5S33.9,50,32.5,50h-10c-1.4,0-2.5,1.1-2.5,2.5S21.1,55,22.5,55z"/><path d="M62.5,30h15c1.4,0,2.5-1.1,2.5-2.5S78.9,25,77.5,25h-15c-1.4,0-2.5,1.1-2.5,2.5S61.1,30,62.5,30z"/><text x="0" y="115" fill="#000000" font-size="5px" font-weight="bold" font-family="'Helvetica Neue', Helvetica, Arial-Unicode, Arial, Sans-serif">Created by Arthur Shlain</text><text x="0" y="120" fill="#000000" font-size="5px" font-weight="bold" font-family="'Helvetica Neue', Helvetica, Arial-Unicode, Arial, Sans-serif">from the Noun Project</text></svg>